<?xml version="1.0" encoding="UTF-8" standalone="no"?>
<!-- Created with Inkscape (http://www.inkscape.org/) -->

<svg
   xmlns:dc="http://purl.org/dc/elements/1.1/"
   xmlns:cc="http://creativecommons.org/ns#"
   xmlns:rdf="http://www.w3.org/1999/02/22-rdf-syntax-ns#"
   xmlns:svg="http://www.w3.org/2000/svg"
   xmlns="http://www.w3.org/2000/svg"
   xmlns:xlink="http://www.w3.org/1999/xlink"
   xmlns:sodipodi="http://sodipodi.sourceforge.net/DTD/sodipodi-0.dtd"
   xmlns:inkscape="http://www.inkscape.org/namespaces/inkscape"
   width="256px"
   height="256px"
   viewBox="0 0 256 256"
   version="1.1"
   id="SVGRoot"
   inkscape:version="0.92.4 (5da689c313, 2019-01-14)"
   sodipodi:docname="logo_meta.svg"
   inkscape:export-filename="C:\Users\macropower\Documents\GitHub\OmegaGraf\OmegaGraf\compose\docs\branding\logo_1024_g_w.png"
   inkscape:export-xdpi="384"
   inkscape:export-ydpi="384">
  <defs
     id="defs3823">
    <linearGradient
       inkscape:collect="always"
       id="linearGradient829-6">
      <stop
         style="stop-color:#29d19f;stop-opacity:1"
         offset="0"
         id="stop825" />
      <stop
         style="stop-color:#22c1c3;stop-opacity:1"
         offset="1"
         id="stop827" />
    </linearGradient>
    <linearGradient
       inkscape:collect="always"
       xlink:href="#linearGradient829-6"
       id="linearGradient831"
       x1="-447.40591"
       y1="222.26952"
       x2="-281.65457"
       y2="143.54248"
       gradientUnits="userSpaceOnUse" />
  </defs>
  <sodipodi:namedview
     id="base"
     pagecolor="#ffffff"
     bordercolor="#666666"
     borderopacity="1.0"
     inkscape:pageopacity="0.0"
     inkscape:pageshadow="2"
     inkscape:zoom="1.4142136"
     inkscape:cx="377.75523"
     inkscape:cy="185.17313"
     inkscape:document-units="px"
     inkscape:current-layer="layer1"
     showgrid="false"
     inkscape:window-width="2560"
     inkscape:window-height="1377"
     inkscape:window-x="-8"
     inkscape:window-y="-8"
     inkscape:window-maximized="1"
     inkscape:grid-bbox="true">
    <inkscape:grid
       type="xygrid"
       id="grid3745" />
  </sodipodi:namedview>
  <metadata
     id="metadata3826">
    <rdf:RDF>
      <cc:Work
         rdf:about="">
        <dc:format>image/svg+xml</dc:format>
        <dc:type
           rdf:resource="http://purl.org/dc/dcmitype/StillImage" />
        <dc:title />
      </cc:Work>
    </rdf:RDF>
  </metadata>
  <g
     inkscape:label="Layer 1"
     inkscape:groupmode="layer"
     id="layer1">
    <g
       id="g3753"
       transform="matrix(1.2998889,0,0,1.2998889,373.09619,-23.026608)">
      <path
         style="fill:#020202;stroke-width:0.26458332"
         d="m -232.74541,189.87589 c -6.41856,-0.54887 -11.78452,-1.37422 -18.22972,-2.80396 -6.10876,-1.35511 -6.65645,-1.60203 -8.91466,-4.01917 -14.27923,-15.28412 -22.33341,-32.26747 -25.11981,-52.96862 -0.71331,-5.29937 -0.99197,-16.60437 -0.54248,-22.00782 2.63422,-31.667164 19.12043,-58.291821 46.0506,-74.370124 14.2894,-8.531293 29.7536,-12.849925 47.76649,-13.339576 15.18,-0.412645 29.34459,2.053698 42.26417,7.359046 8.08054,3.318227 17.14334,8.659809 23.68191,13.958032 1.63639,1.325973 3.39677,2.955969 3.39677,2.955969 V 32.330923 l 30.00256,0 v 70.005987 h -38.46483 l -0.49902,-1.88314 c -1.98724,-9.401324 -6.32403,-18.789354 -12.03077,-26.043554 -2.04088,-2.59428 -6.91625,-7.39863 -9.46879,-9.33084 -8.27414,-6.263336 -16.65749,-9.815393 -26.8435,-11.373686 -4.24627,-0.649607 -13.75818,-0.648486 -17.99167,0.0021 -6.59617,1.013714 -11.77916,2.609151 -17.34614,5.339519 -9.83453,4.823407 -17.52763,12.030777 -23.53337,22.047467 -8.18564,13.65248 -11.01046,32.026894 -7.62989,49.629824 4.60513,23.97938 21.53016,42.17662 43.78704,47.0784 4.81257,1.0599 7.67063,1.34384 13.58591,1.34971 9.55416,0.009 22.14789,-3.25118 27.90803,-6.28937 5.76014,-3.03819 4.8073,-2.54303 4.8073,-2.54303 0,0 -11.50593,7.15938 -16.57575,9.46974 -10.92629,4.97919 -22.50035,8.09283 -36.11563,9.71578 -4.13236,0.49258 -19.69864,0.73313 -23.94479,0.37003 z"
         id="path3755"
         inkscape:connector-curvature="0"
         sodipodi:nodetypes="cscccssssccccccccscccssczcsscc" />
    </g>
    <g
       id="g3770"
       transform="matrix(1.2998889,0,0,1.2998889,619.1196,-36.58928)"
       style="fill:#c81d8a;fill-opacity:1">
      <path
         style="fill:url(#linearGradient831);fill-opacity:1;stroke-width:0.26458332;fill-rule:nonzero"
         d="m -384.96875,222.56188 c -25.77313,-1.05179 -43.02036,-9.79784 -59.11055,-24.02246 -1.46831,-1.29808 -3.32662,-3.39014 -3.32662,-3.39014 2.66295,0.93865 4.10391,1.42989 6.20719,1.96487 2.57042,0.6538 4.6023,0.95466 7.81123,1.51504 9.8945,1.72789 35.41646,2.29648 52.20882,-2.00271 1.99004,-0.50949 3.97973,-1.00629 4.41201,-1.13743 7.29172,-2.21203 10.72948,-3.55803 14.68438,-5.53541 0.22668,-0.11334 2.0325,-1.02191 4.02575,-1.99677 2.47026,-1.20815 5.07214,-2.71488 7.21904,-4.09202 0.87312,-0.56987 2.57786,-1.64281 3.78829,-2.3843 3.76204,-2.30455 10.00533,-7.9355 10.00533,-7.9355 h -16.15523 l -4e-5,-30.00257 h 71.54458 l 4e-5,70.77528 h -30.00257 l -4e-5,-16.15522 c -21.57418,18.46781 -47.53848,25.45113 -73.31161,24.39934 z"
         id="path3772"
         inkscape:connector-curvature="0"
         sodipodi:nodetypes="zccassssscccccccccz" />
    </g>
  </g>
</svg>
