<?xml version="1.0" encoding="UTF-8" standalone="no"?>
<!-- Created with Inkscape (http://www.inkscape.org/) -->

<svg
   xmlns:dc="http://purl.org/dc/elements/1.1/"
   xmlns:cc="http://creativecommons.org/ns#"
   xmlns:rdf="http://www.w3.org/1999/02/22-rdf-syntax-ns#"
   xmlns:svg="http://www.w3.org/2000/svg"
   xmlns="http://www.w3.org/2000/svg"
   xmlns:sodipodi="http://sodipodi.sourceforge.net/DTD/sodipodi-0.dtd"
   xmlns:inkscape="http://www.inkscape.org/namespaces/inkscape"
   width="863.76196"
   height="643.57141"
   viewBox="0 0 228.53701 170.27827"
   version="1.1"
   id="svg54"
   inkscape:version="0.92.4 (5da689c313, 2019-01-14)"
   sodipodi:docname="omegagraf_tech.svg"
   inkscape:export-filename="C:\Users\macropower\Documents\omegagraf_tech.png"
   inkscape:export-xdpi="200"
   inkscape:export-ydpi="200">
  <defs
     id="defs48">
    <linearGradient
       id="linearGradient-1"
       y2="83.100204"
       x2="133.42033"
       y1="326.78143"
       x1="133.42033"
       gradientTransform="matrix(0.40680638,0,0,0.44208187,313.93808,272.87735)"
       gradientUnits="userSpaceOnUse">
      <stop
         id="stop4609"
         offset="0%"
         stop-color="#FFF100"
         style="stop-color:#fd00ff;stop-opacity:1" />
      <stop
         id="stop4611"
         offset="100%"
         stop-color="#F05A28" />
    </linearGradient>
    <linearGradient
       id="linearGradient-1-4"
       y2="83.100204"
       x2="133.42033"
       y1="326.78143"
       x1="133.42033"
       gradientTransform="scale(0.95927369,1.0424554)"
       gradientUnits="userSpaceOnUse">
      <stop
         id="stop4676"
         offset="0%"
         stop-color="#FFF100" />
      <stop
         id="stop4678"
         offset="100%"
         stop-color="#F05A28" />
    </linearGradient>
  </defs>
  <sodipodi:namedview
     id="base"
     pagecolor="#ffffff"
     bordercolor="#666666"
     borderopacity="1.0"
     inkscape:pageopacity="0.0"
     inkscape:pageshadow="2"
     inkscape:zoom="0.86516594"
     inkscape:cx="586.29535"
     inkscape:cy="395.25179"
     inkscape:document-units="mm"
     inkscape:current-layer="layer1"
     showgrid="true"
     showguides="false"
     inkscape:window-width="1645"
     inkscape:window-height="997"
     inkscape:window-x="122"
     inkscape:window-y="175"
     inkscape:window-maximized="0"
     units="px"
     fit-margin-top="10"
     fit-margin-left="10"
     fit-margin-right="10"
     fit-margin-bottom="10">
    <inkscape:grid
       type="xygrid"
       id="grid4607"
       originx="-8.2587801"
       originy="-127.67095" />
  </sodipodi:namedview>
  <metadata
     id="metadata51">
    <rdf:RDF>
      <cc:Work
         rdf:about="">
        <dc:format>image/svg+xml</dc:format>
        <dc:type
           rdf:resource="http://purl.org/dc/dcmitype/StillImage" />
        <dc:title></dc:title>
      </cc:Work>
    </rdf:RDF>
  </metadata>
  <g
     inkscape:label="Layer 1"
     inkscape:groupmode="layer"
     id="layer1"
     transform="translate(-8.2587808,0.94924798)">
    <path
       style="fill:none;stroke:#000000;stroke-width:1.32291663;stroke-linecap:round;stroke-linejoin:bevel;stroke-miterlimit:4;stroke-dasharray:none;stroke-opacity:1"
       d="m 32.071268,46.250526 v 14.55208"
       id="path4717"
       inkscape:connector-curvature="0"
       inkscape:export-filename="C:\Users\macropower\Documents\GitHub\OmegaGraf\OmegaGraf\compose\docs\branding\tech_1440.png"
       inkscape:export-xdpi="200.84"
       inkscape:export-ydpi="200.84" />
    <path
       style="fill:none;stroke:#000000;stroke-width:1.32291663;stroke-linecap:round;stroke-linejoin:bevel;stroke-miterlimit:4;stroke-dasharray:none;stroke-opacity:1"
       d="m 32.071268,107.57716 v 14.55208"
       id="path4717-9"
       inkscape:connector-curvature="0"
       inkscape:export-filename="C:\Users\macropower\Documents\GitHub\OmegaGraf\OmegaGraf\compose\docs\branding\tech_1440.png"
       inkscape:export-xdpi="200.84"
       inkscape:export-ydpi="200.84" />
    <path
       style="fill:none;stroke:#000000;stroke-width:1.32291663;stroke-linecap:round;stroke-linejoin:bevel;stroke-miterlimit:4;stroke-dasharray:none;stroke-opacity:1"
       d="m 148.79216,46.250547 v 14.55208"
       id="path4717-49"
       inkscape:connector-curvature="0"
       inkscape:export-filename="C:\Users\macropower\Documents\GitHub\OmegaGraf\OmegaGraf\compose\docs\branding\tech_1440.png"
       inkscape:export-xdpi="200.84"
       inkscape:export-ydpi="200.84" />
    <path
       style="fill:none;stroke:#000000;stroke-width:1.32291663;stroke-linecap:round;stroke-linejoin:bevel;stroke-miterlimit:4;stroke-dasharray:none;stroke-opacity:1"
       d="m 148.79216,107.57716 v 14.55208"
       id="path4717-00"
       inkscape:connector-curvature="0"
       inkscape:export-filename="C:\Users\macropower\Documents\GitHub\OmegaGraf\OmegaGraf\compose\docs\branding\tech_1440.png"
       inkscape:export-xdpi="200.84"
       inkscape:export-ydpi="200.84" />
    <circle
       id="path56"
       cx="32.071281"
       cy="145.51653"
       style="fill:none;stroke:#000000;stroke-width:1.32291663;stroke-miterlimit:4;stroke-dasharray:none;stroke-opacity:1"
       r="20.505209"
       inkscape:export-filename="C:\Users\macropower\Documents\GitHub\OmegaGraf\OmegaGraf\compose\docs\branding\tech_1440.png"
       inkscape:export-xdpi="200.84"
       inkscape:export-ydpi="200.84" />
    <g
       id="g4580"
       transform="matrix(0.02939815,0,0,0.02939815,23.928008,136.49129)"
       inkscape:export-filename="C:\Users\macropower\Documents\GitHub\OmegaGraf\OmegaGraf\compose\docs\branding\tech_1440.png"
       inkscape:export-xdpi="200.84"
       inkscape:export-ydpi="200.84">
      <rect
         height="900"
         width="900"
         class="st0"
         y="-143"
         x="-173"
         id="Background"
         style="fill:none" />
    </g>
    <path
       d="m 44.333258,148.10062 -2.38125,-10.36873 c -0.13524,-0.56738 -0.6497,-1.13477 -1.21709,-1.2994 l -10.88319,-3.35727 c -0.13523,-0.0529 -0.29692,-0.0529 -0.46155,-0.0529 -0.46155,0 -0.94662,0.18815 -1.27294,0.46156 l -7.79639,7.25546 c -0.43216,0.37924 -0.6497,1.13771 -0.51447,1.67863 l 2.54588,11.10075 c 0.13523,0.56738 0.6497,1.1377 1.21708,1.29939 l 10.17764,3.13973 c 0.13523,0.0529 0.29692,0.0529 0.46155,0.0529 0.46155,0 0.94662,-0.18815 1.27294,-0.46155 l 8.33732,-7.74053 c 0.43509,-0.4057 0.6497,-1.13771 0.51447,-1.70803 z m -13.34382,-12.56183 7.47007,2.30188 c 0.29692,0.0823 0.29692,0.21754 0,0.29692 l -3.92466,0.8937 c -0.29692,0.0823 -0.70261,-0.0529 -0.92016,-0.27046 l -2.73403,-2.95158 c -0.244,-0.24106 -0.19109,-0.34983 0.10878,-0.27046 z m 4.65372,13.40262 c 0.0823,0.29692 -0.10877,0.46155 -0.40569,0.37923 l -8.06685,-2.49002 c -0.29693,-0.0823 -0.35278,-0.32632 -0.13524,-0.54093 l 6.17362,-5.74145 c 0.21754,-0.21755 0.46155,-0.13524 0.54092,0.16169 z m -13.2909,-7.31132 6.55285,-6.0913 c 0.21754,-0.21755 0.56738,-0.18815 0.78493,0.0265 l 3.27495,3.54836 c 0.21755,0.21754 0.18815,0.56738 -0.0265,0.78493 l -6.55284,6.09129 c -0.21755,0.21755 -0.56739,0.18815 -0.78494,-0.0265 l -3.27495,-3.54541 c -0.21755,-0.24401 -0.18815,-0.59678 0.0265,-0.78787 z m 1.59926,9.66611 -1.73155,-7.60824 c -0.0823,-0.29692 0.0529,-0.35278 0.244,-0.13523 l 2.73403,2.95157 c 0.21755,0.21755 0.29692,0.6497 0.21755,0.94662 l -1.19357,3.84528 c -0.0823,0.29692 -0.21754,0.29692 -0.27046,0 z m 9.58086,4.43912 -8.55487,-2.62526 c -0.29692,-0.0823 -0.46155,-0.40569 -0.37923,-0.70261 l 1.43463,-4.60375 c 0.0823,-0.29692 0.40569,-0.46155 0.70261,-0.37924 l 8.55486,2.62526 c 0.29693,0.0823 0.46156,0.40569 0.37924,0.70261 l -1.43463,4.60375 c -0.10583,0.29986 -0.40275,0.46155 -0.70261,0.37924 z m 7.57884,-6.22653 -5.70912,5.30637 c -0.21755,0.21754 -0.32338,0.13523 -0.24401,-0.16169 l 1.19063,-3.84528 c 0.0823,-0.29692 0.40569,-0.59678 0.70261,-0.6497 l 3.92466,-0.8937 c 0.29986,-0.0794 0.35277,0.0559 0.13523,0.244 z m 0.62324,-1.13477 -4.70958,1.08185 c -0.29693,0.0823 -0.59679,-0.10877 -0.67616,-0.40569 l -2.00202,-8.71655 c -0.0823,-0.29692 0.10878,-0.59678 0.4057,-0.67616 l 4.70958,-1.08185 c 0.29692,-0.0823 0.59678,0.10877 0.67616,0.40569 l 2.00201,8.71655 c 0.0823,0.32338 -0.10583,0.62031 -0.40569,0.67616 z"
       class="st1"
       id="Cuboctahedron"
       inkscape:connector-curvature="0"
       style="fill:#c81d8a;fill-opacity:1;stroke-width:0.02939815"
       inkscape:export-filename="C:\Users\macropower\Documents\GitHub\OmegaGraf\OmegaGraf\compose\docs\branding\tech_1440.png"
       inkscape:export-xdpi="200.84"
       inkscape:export-ydpi="200.84" />
    <text
       xml:space="preserve"
       style="font-style:normal;font-variant:normal;font-weight:normal;font-stretch:normal;font-size:10.58333302px;line-height:1.25;font-family:'Proxima Nova';-inkscape-font-specification:'Proxima Nova';letter-spacing:0px;word-spacing:0px;fill:#000000;fill-opacity:1;stroke:none;stroke-width:0.26458332"
       x="56.063744"
       y="148.06183"
       id="text99"
       inkscape:export-filename="C:\Users\macropower\Documents\GitHub\OmegaGraf\OmegaGraf\compose\docs\branding\tech_1440.png"
       inkscape:export-xdpi="200.84"
       inkscape:export-ydpi="200.84"><tspan
         sodipodi:role="line"
         id="tspan97"
         x="56.063744"
         y="148.06183"
         style="stroke-width:0.26458332">Telegraf</tspan></text>
    <circle
       id="path56-9"
       cx="32.071281"
       cy="84.18988"
       style="fill:none;stroke:#000000;stroke-width:1.32291663;stroke-miterlimit:4;stroke-dasharray:none;stroke-opacity:1"
       r="20.505209"
       inkscape:export-filename="C:\Users\macropower\Documents\GitHub\OmegaGraf\OmegaGraf\compose\docs\branding\tech_1440.png"
       inkscape:export-xdpi="200.84"
       inkscape:export-ydpi="200.84" />
    <g
       id="g4590"
       transform="matrix(0.23345657,0,0,0.23346069,18.842108,70.804995)"
       style="fill:#c81d8a;fill-opacity:1"
       inkscape:export-filename="C:\Users\macropower\Documents\GitHub\OmegaGraf\OmegaGraf\compose\docs\branding\tech_1440.png"
       inkscape:export-xdpi="200.84"
       inkscape:export-ydpi="200.84">
      <g
         id="Layer_2"
         style="fill:#c81d8a;fill-opacity:1" />
      <path
         d="M 56.667,0.667 C 25.372,0.667 0,26.036 0,57.332 c 0,31.295 25.372,56.666 56.667,56.666 31.295,0 56.666,-25.371 56.666,-56.666 0,-31.296 -25.372,-56.665 -56.666,-56.665 z m 0,106.055 c -8.904,0 -16.123,-5.948 -16.123,-13.283 H 72.79 c 0,7.334 -7.219,13.283 -16.123,13.283 z M 83.297,89.04 H 30.034 V 79.382 H 83.298 V 89.04 Z M 83.106,74.411 H 30.186 C 30.01,74.208 29.83,74.008 29.66,73.802 24.208,67.182 22.924,63.726 21.677,60.204 c -0.021,-0.116 6.611,1.355 11.314,2.413 0,0 2.42,0.56 5.958,1.205 -3.397,-3.982 -5.414,-9.044 -5.414,-14.218 0,-11.359 8.712,-21.285 5.569,-29.308 3.059,0.249 6.331,6.456 6.552,16.161 3.252,-4.494 4.613,-12.701 4.613,-17.733 0,-5.21 3.433,-11.262 6.867,-11.469 -3.061,5.045 0.793,9.37 4.219,20.099 1.285,4.03 1.121,10.812 2.113,15.113 C 63.797,33.534 65.333,20.5 71,16 c -2.5,5.667 0.37,12.758 2.333,16.167 3.167,5.5 5.087,9.667 5.087,17.548 0,5.284 -1.951,10.259 -5.242,14.148 3.742,-0.702 6.326,-1.335 6.326,-1.335 l 12.152,-2.371 c 10e-4,-10e-4 -1.765,7.261 -8.55,14.254 z"
         id="path4486"
         inkscape:connector-curvature="0"
         style="fill:#c81d8a;fill-opacity:1" />
    </g>
    <text
       xml:space="preserve"
       style="font-style:normal;font-variant:normal;font-weight:normal;font-stretch:normal;font-size:10.58333302px;line-height:1.25;font-family:'Proxima Nova';-inkscape-font-specification:'Proxima Nova';letter-spacing:0px;word-spacing:0px;fill:#000000;fill-opacity:1;stroke:none;stroke-width:0.26458332"
       x="55.608635"
       y="87.655922"
       id="text103"
       inkscape:export-filename="C:\Users\macropower\Documents\GitHub\OmegaGraf\OmegaGraf\compose\docs\branding\tech_1440.png"
       inkscape:export-xdpi="200.84"
       inkscape:export-ydpi="200.84"><tspan
         sodipodi:role="line"
         id="tspan101"
         x="55.608635"
         y="87.655922"
         style="stroke-width:0.26458332">Prometheus</tspan></text>
    <circle
       id="path56-9-8"
       cx="32.071281"
       cy="22.863253"
       style="fill:none;stroke:#000000;stroke-width:1.32291663;stroke-miterlimit:4;stroke-dasharray:none;stroke-opacity:1"
       r="20.505209"
       inkscape:export-filename="C:\Users\macropower\Documents\GitHub\OmegaGraf\OmegaGraf\compose\docs\branding\tech_1440.png"
       inkscape:export-xdpi="200.84"
       inkscape:export-ydpi="200.84" />
    <g
       style="fill:#c81d8a;fill-opacity:1"
       id="g4685"
       transform="matrix(0.09510595,0,0,0.09510595,18.839368,9.6340853)"
       inkscape:export-filename="C:\Users\macropower\Documents\GitHub\OmegaGraf\OmegaGraf\compose\docs\branding\tech_1440.png"
       inkscape:export-xdpi="200.84"
       inkscape:export-ydpi="200.84">
      <path
         style="fill:#c81d8a;fill-opacity:1;fill-rule:nonzero"
         id="path4683"
         d="m 255.5901,122.77522 c -0.45983,-4.67497 -1.22622,-10.03968 -2.75899,-16.0175 -1.53278,-5.90118 -3.83194,-12.415467 -7.20404,-19.159674 -3.37211,-6.744206 -7.74051,-13.718329 -13.41178,-20.539174 -2.22252,-2.682355 -4.67496,-5.288071 -7.28067,-7.817149 3.90857,-15.557658 -4.7516,-29.046071 -4.7516,-29.046071 -14.94455,-0.919665 -24.44775,4.674961 -27.97313,7.204039 -0.61311,-0.229916 -1.14958,-0.536471 -1.76269,-0.766387 -2.52908,-0.996304 -5.1348,-1.992607 -7.89379,-2.835633 -2.68236,-0.843025 -5.44135,-1.609412 -8.27698,-2.299161 -2.83563,-0.689748 -5.67127,-1.226219 -8.58354,-1.686051 -0.53647,-0.07664 -0.9963,-0.153278 -1.53277,-0.229917 C 157.64583,8.736813 138.94598,0 138.94598,0 c -20.92237,13.258497 -24.83094,31.805065 -24.83094,31.805065 0,0 -0.0766,0.383194 -0.22992,1.072942 -1.14958,0.306555 -2.29916,0.689748 -3.44874,0.996303 -1.60941,0.459832 -3.21882,1.072942 -4.7516,1.686052 -1.60941,0.613109 -3.14218,1.226219 -4.7516,1.915967 -3.142185,1.379497 -6.284372,2.912272 -9.349921,4.598323 -2.988909,1.686052 -5.90118,3.525381 -8.736813,5.441349 -0.383193,-0.153278 -0.766387,-0.306555 -0.766387,-0.306555 -28.969432,-11.035975 -54.643401,2.222522 -54.643401,2.222522 -2.3758,30.808762 11.572446,50.198356 14.331439,53.723732 -0.689748,1.91597 -1.302858,3.83194 -1.915967,5.74791 -2.145884,6.97412 -3.755297,14.10152 -4.751601,21.53548 -0.153277,1.07294 -0.306554,2.14588 -0.383193,3.21882 C 7.8937872,146.91641 0,173.96987 0,173.96987 c 22.301865,25.67397 48.359026,27.28338 48.359026,27.28338 0,0 0.07664,-0.0766 0.07664,-0.0766 3.295465,5.90118 7.1274,11.4958 11.419168,16.78387 1.839329,2.22253 3.678658,4.29177 5.671265,6.36102 -8.123704,23.29816 1.14958,42.61112 1.14958,42.61112 24.830943,0.91966 41.154991,-10.8827 44.603731,-13.56505 2.45244,0.84302 4.98151,1.60941 7.51059,2.22252 7.66387,1.99261 15.48102,3.14219 23.29817,3.44874 1.91597,0.0766 3.90857,0.15328 5.82454,0.0766 h 0.91967 0.61311 1.22621 l 1.22622,-0.0766 v 0.0766 c 11.72573,16.70724 32.2649,19.08304 32.2649,19.08304 14.638,-15.40438 15.48102,-30.73212 15.48102,-34.02759 0,0 0,-0.0766 0,-0.22991 0,-0.30656 0,-0.45984 0,-0.45984 0,-0.22991 0,-0.45983 0,-0.68974 3.06555,-2.14589 5.97782,-4.44505 8.73681,-6.97413 5.82455,-5.28807 10.95934,-11.34253 15.25111,-17.85682 0.38319,-0.61311 0.76638,-1.22622 1.14958,-1.83933 16.55396,0.91967 28.27968,-10.26958 28.27968,-10.26958 -2.75899,-17.24371 -12.56875,-25.67397 -14.63799,-27.28338 0,0 -0.0766,-0.0766 -0.22992,-0.15328 -0.15328,-0.0766 -0.15328,-0.15328 -0.15328,-0.15328 0,0 0,0 0,0 -0.0766,-0.0766 -0.22991,-0.15328 -0.38319,-0.22992 0.0766,-1.07294 0.15328,-2.06924 0.22992,-3.14218 0.15327,-1.83933 0.15327,-3.7553 0.15327,-5.59463 v -1.3795 -0.68974 -0.3832 c 0,-0.45983 0,-0.30655 0,-0.45983 l -0.0766,-1.14958 -0.0766,-1.53277 c 0,-0.53648 -0.0766,-0.99631 -0.15328,-1.45614 -0.0766,-0.45983 -0.0766,-0.9963 -0.15328,-1.45614 l -0.15327,-1.45613 -0.22992,-1.45614 c -0.30656,-1.91596 -0.61311,-3.75529 -1.07294,-5.67126 -1.76269,-7.43396 -4.67496,-14.48472 -8.43026,-20.84573 -3.83194,-6.36101 -8.58354,-11.95564 -14.02489,-16.70724 -5.3647,-4.7516 -11.41916,-8.58353 -17.70354,-11.41917 -6.36101,-2.83563 -12.95194,-4.674958 -19.54287,-5.517984 -3.29546,-0.459832 -6.59093,-0.613109 -9.88639,-0.536471 h -1.22622 -0.30656 c -0.0766,0 -0.45983,0 -0.38319,0 h -0.53647 l -1.22622,0.07664 c -0.45983,0 -0.91966,0.07664 -1.30286,0.07664 -1.68605,0.153277 -3.3721,0.383193 -4.98151,0.689748 -6.59093,1.226219 -12.79867,3.602017 -18.24002,6.897487 -5.44135,3.29546 -10.19295,7.35731 -14.02488,11.95563 -3.83194,4.59833 -6.82085,9.73312 -8.89009,15.02119 -2.06925,5.28807 -3.21883,10.80606 -3.52538,16.09413 -0.0766,1.30286 -0.0766,2.68235 -0.0766,3.98521 0,0.30656 0,0.68975 0,0.99631 l 0.0766,1.07294 c 0.0766,0.61311 0.0766,1.30286 0.15327,1.91597 0.22992,2.68235 0.76639,5.28807 1.45614,7.74051 1.45614,4.98151 3.7553,9.5032 6.59093,13.33513 2.83563,3.83194 6.28437,6.97412 9.88639,9.5032 3.60202,2.45244 7.5106,4.21513 11.34253,5.36471 3.83194,1.14958 7.66387,1.60941 11.26589,1.60941 0.45983,0 0.91967,0 1.30286,0 0.22992,0 0.45983,0 0.68975,0 0.22992,0 0.45983,0 0.68975,-0.0766 0.38319,0 0.76638,-0.0766 1.14958,-0.0766 0.0766,0 0.22991,0 0.30655,-0.0766 l 0.3832,-0.0766 c 0.22991,0 0.45983,-0.0766 0.68974,-0.0766 0.45984,-0.0766 0.84303,-0.15328 1.30286,-0.22992 0.45984,-0.0766 0.84303,-0.15327 1.22622,-0.30655 0.84303,-0.15328 1.60942,-0.45983 2.3758,-0.68975 1.53278,-0.53647 3.06555,-1.14958 4.36841,-1.83933 1.3795,-0.68975 2.60572,-1.53277 3.83193,-2.29916 0.30656,-0.22992 0.68975,-0.45983 0.99631,-0.76639 1.22622,-0.9963 1.45613,-2.83563 0.45983,-4.06185 -0.84303,-1.07294 -2.3758,-1.37949 -3.60202,-0.68975 -0.30655,0.15328 -0.61311,0.30656 -0.91966,0.45984 -1.07295,0.53647 -2.14589,0.9963 -3.29547,1.37949 -1.14958,0.3832 -2.3758,0.68975 -3.60202,0.91967 -0.61311,0.0766 -1.22622,0.15327 -1.91597,0.22991 -0.30655,0 -0.61311,0.0766 -0.9963,0.0766 -0.30655,0 -0.68975,0 -0.91966,0 -0.30656,0 -0.61311,0 -0.91967,0 -0.38319,0 -0.76639,0 -1.14958,-0.0766 0,0 -0.22991,0 -0.0766,0 h -0.15327 -0.22992 c -0.15328,0 -0.38319,0 -0.53647,-0.0766 -0.3832,-0.0766 -0.68975,-0.0766 -1.07294,-0.15327 -2.83564,-0.3832 -5.67127,-1.22622 -8.35362,-2.45244 -2.759,-1.22622 -5.36471,-2.91227 -7.74051,-5.05816 -2.3758,-2.14588 -4.44505,-4.67496 -6.05446,-7.58723 -1.60941,-2.91227 -2.75899,-6.1311 -3.29546,-9.5032 -0.22992,-1.68605 -0.3832,-3.44874 -0.30656,-5.13479 0,-0.45983 0.0766,-0.91967 0.0766,-1.3795 0,0.15328 0,-0.0766 0,-0.0766 v -0.15328 -0.38319 c 0,-0.22992 0.0766,-0.45983 0.0766,-0.68975 0.0766,-0.91966 0.22991,-1.83933 0.38319,-2.75899 1.30286,-7.35732 4.98152,-14.56136 10.65278,-20.0027 1.45614,-1.3795 2.98891,-2.60572 4.59832,-3.7553 1.60942,-1.14958 3.37211,-2.14588 5.21144,-2.98891 1.83933,-0.84303 3.67865,-1.53277 5.67126,-2.06925 1.91597,-0.53647 3.90857,-0.84302 5.97782,-1.07294 0.9963,-0.0766 1.99261,-0.15327 3.06555,-0.15327 0.30655,0 0.45983,0 0.68975,0 h 0.84302 0.53647 c 0.22992,0 0,0 0.0766,0 h 0.22992 l 0.84302,0.0766 c 2.22253,0.15328 4.36841,0.45984 6.51429,0.99631 4.29177,0.91966 8.5069,2.52907 12.41548,4.67496 7.81714,4.3684 14.48471,11.11261 18.54656,19.23631 2.06925,4.06186 3.52538,8.43026 4.21513,12.95195 0.15328,1.14958 0.30656,2.29916 0.3832,3.44874 l 0.0766,0.84302 0.0766,0.84303 c 0,0.30655 0,0.61311 0,0.84303 0,0.30655 0,0.61311 0,0.84302 v 0.76639 0.84302 c 0,0.53648 -0.0766,1.45614 -0.0766,1.99261 -0.0766,1.22622 -0.22992,2.52908 -0.3832,3.7553 -0.15328,1.22622 -0.38319,2.45244 -0.61311,3.67866 -0.22991,1.22622 -0.53647,2.45243 -0.84302,3.60202 -0.61311,2.3758 -1.3795,4.7516 -2.29917,7.1274 -1.83932,4.59832 -4.29176,9.04336 -7.20403,13.10521 -5.90118,8.12371 -13.94825,14.71464 -23.14489,18.92977 -4.59833,2.06924 -9.42657,3.60202 -14.40808,4.3684 -2.45244,0.45984 -4.98152,0.68975 -7.5106,0.76639 h -0.45983 -0.38319 -0.84303 -1.22622 -0.61311 c 0.30656,0 -0.0766,0 -0.0766,0 h -0.22991 c -1.3795,0 -2.68236,-0.0766 -4.06185,-0.22992 -5.36471,-0.38319 -10.65278,-1.37949 -15.86422,-2.83563 -5.13479,-1.45613 -10.11631,-3.52538 -14.86791,-5.97782 -9.42656,-5.05815 -17.933453,-11.95564 -24.524382,-20.30926 -3.295465,-4.13849 -6.207736,-8.66017 -8.583536,-13.33513 -2.3758,-4.67496 -4.291767,-9.65648 -5.671264,-14.638 -1.379497,-5.05815 -2.222523,-10.19294 -2.605716,-15.40438 l -0.07664,-0.9963 v -0.22992 -0.22991 -0.45983 -0.84303 -0.22992 -0.30655 -0.61311 -1.22622 -0.22992 c 0,0 0,0.0766 0,-0.0766 v -0.45984 c 0,-0.61311 0,-1.30286 0,-1.91597 0.07664,-2.52907 0.306555,-5.21143 0.61311,-7.81714 0.306554,-2.60572 0.766387,-5.28807 1.302858,-7.89379 0.536471,-2.60572 1.14958,-5.21143 1.915968,-7.81715 1.456135,-5.13479 3.295464,-10.11631 5.441348,-14.79127 4.368406,-9.349921 10.039671,-17.70354 16.860516,-24.371108 1.686052,-1.686052 3.448738,-3.218826 5.288068,-4.7516 1.83933,-1.456136 3.7553,-2.835632 5.74791,-4.13849 1.91596,-1.302858 3.98521,-2.452439 6.05446,-3.525381 0.9963,-0.536471 2.06924,-1.072942 3.14218,-1.532774 0.53647,-0.229916 1.07294,-0.459833 1.60942,-0.689749 0.53647,-0.229916 1.07294,-0.459832 1.60941,-0.689748 2.14588,-0.919665 4.3684,-1.686052 6.66757,-2.3758 0.53647,-0.153278 1.14958,-0.306555 1.68605,-0.536471 0.53647,-0.153278 1.14958,-0.306555 1.68605,-0.459832 1.14958,-0.306555 2.29916,-0.61311 3.44874,-0.843026 0.53647,-0.153278 1.14958,-0.229916 1.76269,-0.383194 0.61311,-0.153277 1.14958,-0.229916 1.76269,-0.383193 0.61311,-0.07664 1.14958,-0.229916 1.76269,-0.306555 l 0.84303,-0.153277 0.91966,-0.153278 c 0.61311,-0.07664 1.14958,-0.153277 1.76269,-0.229916 0.68975,-0.07664 1.30286,-0.153277 1.99261,-0.229916 0.53647,-0.07664 1.45613,-0.153278 1.99261,-0.229916 0.38319,-0.07664 0.84302,-0.07664 1.22621,-0.153278 l 0.84303,-0.07664 0.38319,-0.07664 h 0.45984 c 0.68974,-0.07664 1.30285,-0.07664 1.9926,-0.153278 l 0.99631,-0.07664 c 0,0 0.38319,0 0.0766,0 h 0.22992 0.45983 c 0.53647,0 1.14958,-0.07664 1.68605,-0.07664 2.22253,-0.07664 4.52169,-0.07664 6.74421,0 4.44505,0.153277 8.81345,0.689748 13.02858,1.456136 8.5069,1.609412 16.47732,4.291767 23.758,7.893787 7.28068,3.52538 13.71833,7.893787 19.3896,12.645387 0.38319,0.306555 0.68974,0.61311 1.07294,0.919665 0.30655,0.306554 0.68975,0.613109 0.9963,0.919664 0.68975,0.61311 1.30286,1.226219 1.99261,1.839329 0.68975,0.61311 1.30286,1.226219 1.91597,1.839329 0.61311,0.61311 1.22621,1.226219 1.83932,1.915968 2.3758,2.529077 4.59833,5.058155 6.59093,7.663871 3.98522,5.134794 7.20404,10.346234 9.73312,15.251104 0.15328,0.30656 0.30656,0.61311 0.45983,0.91967 0.15328,0.30655 0.30656,0.61311 0.45983,0.91966 0.30656,0.61311 0.61311,1.22622 0.84303,1.83933 0.30656,0.61311 0.53647,1.14958 0.84303,1.76269 0.22991,0.61311 0.53647,1.14958 0.76638,1.76269 0.91967,2.29916 1.83933,4.52169 2.52908,6.59093 1.14958,3.37211 1.99261,6.36101 2.68236,8.96673 0.22991,1.07294 1.22621,1.76269 2.29916,1.60941 1.14958,-0.0766 1.9926,-0.9963 1.9926,-2.14588 0.0766,-2.75899 0,-6.05446 -0.38319,-9.80975 z"
         inkscape:connector-curvature="0" />
    </g>
    <text
       xml:space="preserve"
       style="font-style:normal;font-variant:normal;font-weight:normal;font-stretch:normal;font-size:10.58333302px;line-height:1.25;font-family:'Proxima Nova';-inkscape-font-specification:'Proxima Nova';letter-spacing:0px;word-spacing:0px;fill:#000000;fill-opacity:1;stroke:none;stroke-width:0.26458332"
       x="55.91555"
       y="26.382219"
       id="text107"
       inkscape:export-filename="C:\Users\macropower\Documents\GitHub\OmegaGraf\OmegaGraf\compose\docs\branding\tech_1440.png"
       inkscape:export-xdpi="200.84"
       inkscape:export-ydpi="200.84"><tspan
         sodipodi:role="line"
         id="tspan105"
         x="55.91555"
         y="26.382219"
         style="stroke-width:0.26458332">Grafana</tspan></text>
    <g
       id="g5188"
       transform="matrix(0.16032647,0,0,0.16032647,48.412308,21.016905)"
       style="fill:#c81d8a;fill-opacity:1"
       inkscape:export-filename="C:\Users\macropower\Documents\GitHub\OmegaGraf\OmegaGraf\compose\docs\branding\tech_1440.png"
       inkscape:export-xdpi="200.84"
       inkscape:export-ydpi="200.84">
      <path
         style="fill:#c81d8a;fill-opacity:1;stroke-width:0.94204867"
         inkscape:connector-curvature="0"
         class="st0"
         d="m 600.29341,-10.404936 c 2.4493,0.6594409 4.33342,1.695688 6.0291,3.4855848 0.84783,0.9420368 2.16671,2.6377285 2.35513,3.1087441 0,0.094354 -4.14503,2.92035802 -6.68854,4.52183505 -0.0943,0.0943543 -0.47105,-0.37681051 -0.84786,-0.94203613 -1.22467,-1.78990222 -2.54351,-2.63772382 -4.52184,-2.73193852 -2.92035,-0.1883476 -4.80442,1.3188474 -4.80442,3.86239447 0,0.75365093 0.0943,1.22467133 0.3768,1.78989713 0.65944,1.3188473 1.88411,2.1667077 5.55808,3.7681848 6.87697,3.0145681 9.89153,4.8986413 11.68139,7.7247893 2.07254,3.108777 2.54356,8.101629 1.13046,11.775637 -1.50727,4.05078 -5.36965,6.782751 -10.73935,7.630576 -1.69569,0.282705 -5.55808,0.282705 -7.34798,-0.09435 -3.8624,-0.65944 -7.53637,-2.637724 -9.79728,-5.087062 -0.84787,-0.942037 -2.63776,-3.579797 -2.54355,-3.768183 0,-0.09435 0.47101,-0.282704 0.84786,-0.565229 0.47102,-0.282705 2.07249,-1.22467 3.57976,-2.072496 l 2.73197,-1.601512 0.56523,0.847861 c 0.84783,1.22467 2.63772,2.920357 3.67397,3.485586 3.10879,1.601477 7.34798,1.413056 9.42048,-0.471018 0.84786,-0.847862 1.22466,-1.695688 1.22466,-2.920357 0,-1.130459 -0.0943,-1.601477 -0.75361,-2.449338 -0.75365,-1.036248 -2.26092,-1.978285 -6.68858,-3.862396 -4.99285,-2.166703 -7.15955,-3.485584 -9.13784,-5.5580815 -1.13046,-1.2246663 -2.16674,-3.2029879 -2.63776,-4.8044649 -0.37681,-1.3188426 -0.47102,-4.80443118 -0.18835,-6.1233124 1.03625,-4.8044261 4.71022,-8.1958053 9.89149,-9.1378752 2.0725,-0.282703 6.02911,-0.188353 7.63062,0.188347 z m -22.70338,4.0508151 v 3.9566047 h -6.31173 -6.31173 V 15.501395 33.400311 h -4.42763 -4.42762 V 15.501395 -2.3975162 h -6.21752 -6.31173 v -3.8623947 c 0,-2.1667413 0,-3.9566051 0.0943,-3.9566051 0,-0.09435 7.72479,-0.09435 16.95687,-0.09435 h 16.86267 z"
         id="path5116" />
      <path
         style="fill:#c81d8a;fill-opacity:1;stroke-width:0.14667743"
         inkscape:connector-curvature="0"
         d="m 694.85158,-0.0455776 c -0.79206,-0.2640196 -1.58412,-0.5133704 -2.37618,-0.7480525 0.13201,-0.5427074 0.24935,-1.0854149 0.3667,-1.6281224 1.80413,-8.7419775 0.61604,-15.7678255 -3.38826,-18.0853255 -3.85761,-2.21483 -10.15007,0.08801 -16.51587,5.632413 -0.63072,0.542702 -1.24676,1.114748 -1.83347,1.686787 -0.39603,-0.381358 -0.80673,-0.762721 -1.21743,-1.129416 -6.67382,-5.925765 -13.36231,-8.419283 -17.3666,-6.087114 -3.84295,2.229498 -4.98704,8.844652 -3.37359,17.1172595 0.16135,0.8213956 0.33736,1.6281169 0.54271,2.4495124 -0.93873,0.2640195 -1.8628,0.5573761 -2.7282,0.8653965 -7.83257,2.713531 -13.45032,6.996516 -13.45032,11.4261726 0,4.576336 5.98444,9.167341 14.12504,11.95421 0.66005,0.220019 1.32009,0.440032 1.99481,0.630714 -0.22002,0.880065 -0.4107,1.74546 -0.58671,2.640194 -1.54011,8.140596 -0.33736,14.594405 3.50559,16.809237 3.96029,2.288168 10.61945,-0.05867 17.10259,-5.735091 0.51337,-0.454701 1.02674,-0.924065 1.54012,-1.422772 0.64537,0.630713 1.32009,1.23209 1.99481,1.818804 6.2778,5.397728 12.48225,7.58322 16.31053,5.368396 3.96029,-2.28817 5.25105,-9.226017 3.57893,-17.674633 -0.132,-0.645382 -0.27869,-1.305428 -0.44003,-1.980148 0.46937,-0.132007 0.92407,-0.278688 1.37876,-0.425363 8.46329,-2.801539 14.59441,-7.333869 14.59441,-11.983548 0,-4.4443246 -5.77909,-8.7566416 -13.75834,-11.4995106 z M 675.00611,-12.498489 c 5.45641,-4.75235 10.54611,-6.615154 12.86362,-5.280389 2.47885,1.422767 3.43225,7.172524 1.87747,14.7264116 -0.10267,0.498707 -0.20535,0.9827398 -0.33736,1.4667781 -3.25623,-0.733389 -6.55648,-1.2614278 -9.87139,-1.5547845 -1.90681,-2.7282008 -3.98963,-5.3390574 -6.24846,-7.7885692 0.57204,-0.542707 1.12942,-1.056078 1.71612,-1.569447 z m -16.97057,31.564983 c 0.74805,1.276091 1.51078,2.552188 2.3175,3.798947 -2.28817,-0.249356 -4.56166,-0.616045 -6.80584,-1.100084 0.64539,-2.112154 1.45211,-4.297647 2.39085,-6.527147 0.67471,1.290766 1.3641,2.566857 2.09749,3.828284 z M 653.59121,1.4211944 c 2.11216,-0.46936403 4.35632,-0.85072703 6.68849,-1.14408403 -0.77739,1.21742803 -1.54011,2.46418103 -2.25884,3.72560903 -0.71871,1.246759 -1.42277,2.52285 -2.08281,3.813616 -0.92407,-2.185493 -1.70146,-4.326986 -2.34684,-6.395141 z m 4.01896,10.1060816 c 0.96807,-2.0241491 2.02415,-4.0042976 3.1389,-5.9551086 1.11475,-1.950811 2.31751,-3.842947 3.57893,-5.705752 2.20016,-0.161344 4.44432,-0.2493505 6.7325,-0.2493505 2.28816,0 4.54699,0.088007 6.73249,0.2493505 1.24675,1.848136 2.43485,3.740278 3.56426,5.67642 1.12942,1.936142 2.18549,3.9162855 3.1829,5.9257666 -0.98274,2.024148 -2.03882,4.018965 -3.16823,5.984439 -1.11475,1.950811 -2.30284,3.842947 -3.5496,5.72042 -2.18549,0.161344 -4.45899,0.234682 -6.76182,0.234682 -2.30284,0 -4.53234,-0.07333 -6.6885,-0.205345 -1.27609,-1.862804 -2.47885,-3.769609 -3.60826,-5.72042 -1.12942,-1.950811 -2.17082,-3.930953 -3.15357,-5.955102 z m 26.48995,7.509881 c 0.74805,-1.290759 1.4521,-2.596188 2.14149,-3.916285 0.93873,2.126824 1.76013,4.28298 2.47885,6.49781 -2.2735,0.51337 -4.57634,0.909396 -6.89384,1.173415 0.79206,-1.232089 1.54011,-2.493512 2.2735,-3.75494 z m 2.11216,-11.2208216 c -0.68939,-1.290766 -1.39344,-2.581525 -2.12683,-3.842953 -0.71872,-1.246754 -1.46677,-2.478844 -2.24416,-3.69627203 2.36151,0.293357 4.62034,0.689389 6.73249,1.17342203 -0.67472,2.170824 -1.46677,4.282979 -2.3615,6.365803 z M 671.08983,-8.6848805 c 1.54011,1.6721232 2.99222,3.4322526 4.34165,5.2510565 -2.90421,-0.1320125 -5.82309,-0.1320125 -8.7273,0 1.43743,-1.8921417 2.91887,-3.6522711 4.38565,-5.2510565 z m -17.01458,-8.9913275 c 2.46418,-1.437435 7.93525,0.616045 13.69966,5.72042 0.3667,0.322694 0.7334,0.67472 1.11476,1.026746 -2.2735,2.4495118 -4.37099,5.0603684 -6.29247,7.7885692 -3.31491,0.2933567 -6.60048,0.8067268 -9.85672,1.5254472 -0.19068,-0.7480577 -0.35203,-1.5107785 -0.51337,-2.2734995 -1.37876,-7.0991919 -0.46937,-12.4529179 1.84814,-13.7876829 z m -3.5936,38.664176 c -0.61605,-0.176013 -1.21742,-0.366694 -1.8188,-0.572045 -3.12423,-0.982734 -6.67383,-2.537519 -9.24068,-4.57633 -1.48145,-1.026746 -2.47885,-2.610862 -2.75753,-4.38566 0,-2.6841956 4.635,-6.1164476 11.32349,-8.4486216 0.83606,-0.293352 1.68679,-0.557371 2.53752,-0.806722 0.99741,3.182896 2.20016,6.307129 3.5936,9.3286866 -1.4081,3.065557 -2.62553,6.23379 -3.6376,9.460692 z m 17.10259,14.374386 c -2.42018,2.21483 -5.22172,3.974959 -8.27261,5.177713 -1.62812,0.777394 -3.5056,0.850732 -5.17772,0.190681 -2.33216,-1.349429 -3.30024,-6.527147 -1.98014,-13.494321 0.16135,-0.821396 0.33736,-1.642786 0.54271,-2.449512 3.28557,0.704051 6.60049,1.188084 9.9594,1.437435 1.93614,2.742869 4.06296,5.368394 6.33646,7.832575 -0.46937,0.454701 -0.93873,0.894734 -1.4081,1.305429 z m 3.5936,-3.564259 c -1.49611,-1.613454 -2.99223,-3.402915 -4.44433,-5.324389 1.4081,0.05867 2.86021,0.08801 4.32699,0.08801 1.51077,0 2.99221,-0.02933 4.45898,-0.102675 -1.34943,1.862804 -2.80153,3.637597 -4.34164,5.339057 z m 19.17074,4.400323 c -0.13201,1.789461 -1.01207,3.461584 -2.42018,4.591005 -2.33217,1.349431 -7.30454,-0.410701 -12.67293,-5.016369 -0.61605,-0.528038 -1.23209,-1.100083 -1.8628,-1.686791 2.24416,-2.47885 4.31232,-5.104375 6.18978,-7.861913 3.35892,-0.278683 6.70316,-0.792058 10.00341,-1.540111 0.14667,0.601377 0.27868,1.202754 0.39603,1.789467 0.71871,3.168228 0.83606,6.468473 0.36669,9.724712 z m 2.66953,-15.767826 c -0.4107,0.132012 -0.82139,0.264019 -1.24676,0.381363 -1.02674,-3.19757 -2.28817,-6.321797 -3.74028,-9.358022 1.40811,-2.9922206 2.5962,-6.0724476 3.5936,-9.2260116 0.76273,0.220019 1.49611,0.454701 2.20017,0.689383 6.83516,2.346843 11.63152,5.837765 11.63152,8.5072966 0,2.874876 -5.11904,6.585816 -12.43825,9.005991 z M 671.0605,18.23043 c 3.71093,0 6.71782,-3.006883 6.71782,-6.717823 0,-3.7109406 -3.00689,-6.7178296 -6.71782,-6.7178296 -3.71095,0 -6.71784,3.006889 -6.71784,6.7178296 0,3.71094 3.00689,6.717823 6.71784,6.717823 z"
         id="path5127" />
      <path
         style="fill:#c81d8a;fill-opacity:1;stroke-width:0.04059245"
         inkscape:connector-curvature="0"
         d="m 630.23539,9.5677548 h -5.84531 V 3.7224402 c 0,-0.717268 -0.58169,-1.2989557 -1.29896,-1.2989557 h -1.29897 c -0.71727,0 -1.29896,0.5816877 -1.29896,1.2989557 v 5.8453146 h -5.8453 c -0.71728,0 -1.29896,0.5816902 -1.29896,1.2989592 v 1.298959 c 0,0.717268 0.58168,1.298958 1.29896,1.298958 h 5.8453 v 5.845315 c 0,0.717268 0.58169,1.298959 1.29896,1.298959 h 1.29897 c 0.71727,0 1.29896,-0.581691 1.29896,-1.298959 v -5.845315 h 5.84531 c 0.71727,0 1.29895,-0.58169 1.29895,-1.298958 v -1.298959 c 0,-0.717269 -0.58168,-1.2989592 -1.29895,-1.2989592 z"
         id="path5174" />
    </g>
    <circle
       id="path56-7"
       cx="148.79211"
       cy="22.863253"
       style="fill:none;stroke:#000000;stroke-width:1.32291663;stroke-miterlimit:4;stroke-dasharray:none;stroke-opacity:1"
       r="20.505209"
       inkscape:export-filename="C:\Users\macropower\Documents\GitHub\OmegaGraf\OmegaGraf\compose\docs\branding\tech_1440.png"
       inkscape:export-xdpi="200.84"
       inkscape:export-ydpi="200.84" />
    <text
       xml:space="preserve"
       style="font-style:normal;font-variant:normal;font-weight:normal;font-stretch:normal;font-size:10.58333302px;line-height:1.25;font-family:'Proxima Nova';-inkscape-font-specification:'Proxima Nova';letter-spacing:0px;word-spacing:0px;fill:#000000;fill-opacity:1;stroke:none;stroke-width:0.26458332"
       x="172.66725"
       y="19.772913"
       id="text111"
       inkscape:export-filename="C:\Users\macropower\Documents\GitHub\OmegaGraf\OmegaGraf\compose\docs\branding\tech_1440.png"
       inkscape:export-xdpi="200.84"
       inkscape:export-ydpi="200.84"><tspan
         sodipodi:role="line"
         id="tspan109"
         x="172.66725"
         y="19.772913"
         style="stroke-width:0.26458332">TypeScript</tspan><tspan
         sodipodi:role="line"
         x="172.66725"
         y="33.002079"
         style="stroke-width:0.26458332"
         id="tspan113">+ React</tspan></text>
    <path
       id="path5103"
       d="m 151.08731,144.70008 h -2.73246 v -2.45549 h 2.73246 z m 0,-8.44542 h -2.73246 v 2.50924 h 2.73246 z m 3.23266,5.98579 h -2.73247 v 2.4555 h 2.73247 z m -6.46118,-2.98049 h -2.73247 v 2.48443 h 2.73247 z m 3.22852,0 h -2.73246 v 2.48443 h 2.73246 z m 11.44245,4.13383 c -0.59527,-0.40098 -1.96771,-0.54566 -3.02183,-0.34724 -0.13642,-0.99212 -0.69035,-1.85609 -1.69901,-2.63325 l -0.57874,-0.38445 -0.38444,0.57874 c -0.76063,1.1492 -0.96732,3.0425 -0.15295,4.29092 -0.35965,0.19429 -1.06653,0.45885 -2.00078,0.44232 h -17.96977 c -0.35965,2.09999 0.23976,4.82831 1.81888,6.70094 1.53366,1.81475 3.83207,2.7366 6.83737,2.7366 6.50665,0 11.32256,-2.99703 13.5755,-8.44129 0.88464,0.0165 2.79447,0.004 3.77419,-1.86849 0.062,-0.10335 0.27284,-0.54567 0.35138,-0.70689 z m -21.12802,-1.15334 h -2.72833 v 2.4555 h 2.73246 v -2.4555 z m 3.22852,0 h -2.73246 v 2.4555 h 2.73246 z m 3.22853,0 h -2.73247 v 2.4555 h 2.73247 z m -3.22853,-2.98049 h -2.73246 v 2.48443 h 2.73246 z"
       inkscape:connector-curvature="0"
       style="fill:#c81d8a;fill-opacity:1;stroke-width:0.04133833"
       inkscape:export-filename="C:\Users\macropower\Documents\GitHub\OmegaGraf\OmegaGraf\compose\docs\branding\tech_1440.png"
       inkscape:export-xdpi="200.84"
       inkscape:export-ydpi="200.84" />
    <circle
       id="path56-7-8"
       cx="148.79211"
       cy="145.51653"
       style="fill:none;stroke:#000000;stroke-width:1.32291663;stroke-miterlimit:4;stroke-dasharray:none;stroke-opacity:1"
       r="20.505209"
       inkscape:export-filename="C:\Users\macropower\Documents\GitHub\OmegaGraf\OmegaGraf\compose\docs\branding\tech_1440.png"
       inkscape:export-xdpi="200.84"
       inkscape:export-ydpi="200.84" />
    <text
       xml:space="preserve"
       style="font-style:normal;font-variant:normal;font-weight:normal;font-stretch:normal;font-size:10.58333302px;line-height:1.25;font-family:'Proxima Nova';-inkscape-font-specification:'Proxima Nova';letter-spacing:0px;word-spacing:0px;fill:#000000;fill-opacity:1;stroke:none;stroke-width:0.26458332"
       x="172.21217"
       y="148.98257"
       id="text117"
       inkscape:export-filename="C:\Users\macropower\Documents\GitHub\OmegaGraf\OmegaGraf\compose\docs\branding\tech_1440.png"
       inkscape:export-xdpi="200.84"
       inkscape:export-ydpi="200.84"><tspan
         sodipodi:role="line"
         id="tspan115"
         x="172.21217"
         y="148.98257"
         style="stroke-width:0.26458332">Docker</tspan></text>
    <g
       style="fill:#000000;fill-opacity:0.34673366"
       id="g5167"
       transform="matrix(0.03105206,0,0,0.03105206,130.66593,66.062412)"
       inkscape:export-filename="C:\Users\macropower\Documents\GitHub\OmegaGraf\OmegaGraf\compose\docs\branding\tech_1440.png"
       inkscape:export-xdpi="200.84"
       inkscape:export-ydpi="200.84">
      <path
         id="path5140"
         d="m 584.667,582.333 -371.34,213.794 c 6.069,10.97 15.405,20.306 27.775,27.542 59.984,34.776 260.941,149.842 301.086,173.649 27.074,15.872 53.449,16.572 80.523,0.7 100.829,-58.35 201.891,-116.233 302.72,-174.349 12.603,-7.236 21.706,-16.338 27.774,-27.542 z"
         inkscape:connector-curvature="0"
         style="fill:#000000;fill-opacity:0.34673366" />
      <g
         id="g5172"
         style="fill:#000000;fill-opacity:0.34673366">
        <path
           id="path5144"
           style="fill:#c81d8a;fill-opacity:1"
           d="m 962.542,407.983 c 0,-14.237 -3.035,-27.074 -9.336,-37.811 -420.42628,218.16401 -386.9691,201.48292 0.466,425.956 5.835,-10.737 8.87,-23.107 8.87,-37.111 z m -10e-4,0 c 0,-14.237 -3.034,-27.074 -9.336,-37.811 -6.068,-10.736 -15.171,-19.605 -27.307,-26.607 -100.829,-58.117 -201.891,-116.233 -302.72,-174.35 -27.308,-15.638 -53.449,-15.171 -80.523,0.7 -40.145,23.574 -241.336,138.873 -301.086,173.65 -24.741,14.237 -36.644,36.177 -36.644,64.652 V 759.25 c 0,14.004 3.034,26.374 8.869,37.111 6.069,10.97 15.405,20.306 27.775,27.541 59.984,34.777 260.941,149.843 301.086,173.65 27.074,15.868 53.448,16.568 80.523,0.7 100.829,-58.35 201.891,-116.233 302.72,-174.35 12.603,-7.235 21.706,-16.338 27.774,-27.541 5.835,-10.737 8.869,-23.107 8.869,-37.111 z"
           inkscape:connector-curvature="0"
           sodipodi:nodetypes="sccssscccccssccccccss" />
      </g>
      <g
         id="g5150"
         style="fill:#000000;fill-opacity:0.34673366">
        <g
           id="g5319"
           style="fill:#000000;fill-opacity:0.34673366">
          <path
             id="path5148"
             d="M 906.759,544.289 H 786.091 v 24.974 h 120.668 z m 0,55.082 H 786.091 v 24.974 h 120.668 z m -214.028,45.513 c -21.472,38.044 -62.317,63.952 -109.231,63.952 -46.68,0 -87.291,-25.441 -108.764,-63.252 -10.503,-18.438 -16.572,-39.444 -16.572,-62.084 0,-69.32 56.016,-125.336 125.336,-125.336 46.213,0 86.592,25.207 108.298,62.551 L 801.262,457.697 C 757.617,382.543 676.393,331.895 583.267,331.895 c -139.107,0 -251.605,112.732 -251.605,251.605 0,45.513 12.136,88.459 33.376,125.336 43.412,75.388 125.102,126.269 218.462,126.269 93.594,0 175.284,-51.114 218.696,-126.969 z M 831.137,523.983 h -24.974 v 120.668 h 24.974 z m 55.316,0 h -24.974 v 120.668 h 24.974 z"
             inkscape:connector-curvature="0"
             style="fill:#ffffff;fill-opacity:1" />
        </g>
      </g>
    </g>
    <circle
       id="path56-7-0"
       cx="148.79211"
       cy="84.189888"
       style="fill:none;stroke:#000000;stroke-width:1.32291663;stroke-miterlimit:4;stroke-dasharray:none;stroke-opacity:1"
       r="20.505209"
       inkscape:export-filename="C:\Users\macropower\Documents\GitHub\OmegaGraf\OmegaGraf\compose\docs\branding\tech_1440.png"
       inkscape:export-xdpi="200.84"
       inkscape:export-ydpi="200.84" />
    <text
       xml:space="preserve"
       style="font-style:normal;font-variant:normal;font-weight:normal;font-stretch:normal;font-size:10.58333302px;line-height:1.25;font-family:'Proxima Nova';-inkscape-font-specification:'Proxima Nova';letter-spacing:0px;word-spacing:0px;fill:#000000;fill-opacity:1;stroke:none;stroke-width:0.26458332"
       x="172.40266"
       y="87.714142"
       id="text121"
       inkscape:export-filename="C:\Users\macropower\Documents\GitHub\OmegaGraf\OmegaGraf\compose\docs\branding\tech_1440.png"
       inkscape:export-xdpi="200.84"
       inkscape:export-ydpi="200.84"><tspan
         sodipodi:role="line"
         id="tspan119"
         x="172.40266"
         y="87.714142"
         style="stroke-width:0.26458332">.NET Core 3.1</tspan></text>
  </g>
  <style
     id="style4566"
     type="text/css">
	.st0{fill:none;}
	.st1{fill:#22ADF6;}
</style>
  <style
     id="style5114"
     type="text/css">
	.st0{fill:#2179BF;}
</style>
</svg>
