<?xml version="1.0" encoding="UTF-8" standalone="no"?>
<!-- Created with Inkscape (http://www.inkscape.org/) -->

<svg
   xmlns:dc="http://purl.org/dc/elements/1.1/"
   xmlns:cc="http://creativecommons.org/ns#"
   xmlns:rdf="http://www.w3.org/1999/02/22-rdf-syntax-ns#"
   xmlns:svg="http://www.w3.org/2000/svg"
   xmlns="http://www.w3.org/2000/svg"
   xmlns:sodipodi="http://sodipodi.sourceforge.net/DTD/sodipodi-0.dtd"
   xmlns:inkscape="http://www.inkscape.org/namespaces/inkscape"
   width="1243.3569"
   height="859.81085"
   viewBox="0 0 328.97153 227.49164"
   version="1.1"
   id="svg1045"
   inkscape:export-filename="C:\Users\macropower\Documents\GitHub\OmegaGraf\OmegaGraf\compose\docs\branding\flow_1440_features.png"
   inkscape:export-xdpi="199.97476"
   inkscape:export-ydpi="199.97476"
   inkscape:version="0.92.4 (5da689c313, 2019-01-14)"
   sodipodi:docname="drawing-1.svg">
  <defs
     id="defs1039" />
  <sodipodi:namedview
     id="base"
     pagecolor="#ffffff"
     bordercolor="#666666"
     borderopacity="1.0"
     inkscape:pageopacity="0.0"
     inkscape:pageshadow="2"
     inkscape:zoom="0.7"
     inkscape:cx="839.68626"
     inkscape:cy="563.08516"
     inkscape:document-units="mm"
     inkscape:current-layer="layer1"
     showgrid="false"
     fit-margin-top="10"
     fit-margin-left="10"
     fit-margin-right="10"
     fit-margin-bottom="10"
     units="px"
     inkscape:window-width="2560"
     inkscape:window-height="1377"
     inkscape:window-x="-8"
     inkscape:window-y="-8"
     inkscape:window-maximized="1" />
  <metadata
     id="metadata1042">
    <rdf:RDF>
      <cc:Work
         rdf:about="">
        <dc:format>image/svg+xml</dc:format>
        <dc:type
           rdf:resource="http://purl.org/dc/dcmitype/StillImage" />
        <dc:title></dc:title>
      </cc:Work>
    </rdf:RDF>
  </metadata>
  <g
     inkscape:label="Layer 1"
     inkscape:groupmode="layer"
     id="layer1"
     transform="translate(202.28339,-22.112907)">
    <path
       id="path5411"
       d="m -171.19484,50.886349 h 1.15755 c 0.33073,0 0.66146,-0.330732 0.66146,-0.661461 v -11.90625 c 0,-0.330719 -0.33073,-0.66145 -0.66146,-0.66145 h -1.15755 c -0.33073,0 -0.66146,0.330731 -0.66146,0.66145 v 11.90625 c 0,0.330729 0.33073,0.661461 0.66146,0.661461 z m -9.92188,0 h 1.15755 c 0.33073,0 0.66146,-0.330732 0.66146,-0.661461 V 39.972289 c 0,-0.330732 -0.33073,-0.661461 -0.66146,-0.661461 h -1.15755 c -0.33073,0 -0.66146,0.330729 -0.66146,0.661461 v 10.252599 c 0,0.330729 0.33073,0.661461 0.66146,0.661461 z m 4.96094,0 h 1.15755 c 0.33073,0 0.66146,-0.330732 0.66146,-0.661461 v -6.94531 c 0,-0.330729 -0.33073,-0.661461 -0.66146,-0.661461 h -1.15755 c -0.33073,0 -0.66146,0.330732 -0.66146,0.661461 v 6.94531 c 0,0.330729 0.33073,0.661461 0.66146,0.661461 z m 10.08724,2.480469 h -23.15104 V 36.830359 c 0,-0.456821 -0.37001,-0.82682 -0.82683,-0.82682 h -0.82682 c -0.45682,0 -0.82682,0.369999 -0.82682,0.82682 v 17.36329 c 0,0.913119 0.74052,1.65364 1.65364,1.65364 h 23.97787 c 0.45682,0 0.82682,-0.370001 0.82682,-0.82682 v -0.82682 c 0,-0.456819 -0.37,-0.826831 -0.82682,-0.826831 z m -20.00912,-2.480469 h 1.15756 c 0.33073,0 0.66146,-0.330732 0.66146,-0.661461 v -3.638021 c 0,-0.330729 -0.33073,-0.661448 -0.66146,-0.661448 h -1.15756 c -0.33072,0 -0.66145,0.330719 -0.66145,0.661448 v 3.638021 c 0,0.330729 0.33073,0.661461 0.66145,0.661461 z"
       inkscape:connector-curvature="0"
       style="fill:#c81d8a;fill-opacity:1;stroke-width:0.05167643"
       inkscape:export-filename="C:\Users\macropower\Documents\GitHub\OmegaGraf\OmegaGraf\compose\docs\branding\flow_1440_features.png"
       inkscape:export-xdpi="200.81134"
       inkscape:export-ydpi="200.81134" />
    <circle
       id="path56-9-8-6"
       cx="-178.47089"
       cy="45.925407"
       style="fill:none;stroke:#000000;stroke-width:1.32291663;stroke-miterlimit:4;stroke-dasharray:none;stroke-opacity:1"
       r="20.505209"
       inkscape:export-filename="C:\Users\macropower\Documents\GitHub\OmegaGraf\OmegaGraf\compose\docs\branding\flow_1440_features.png"
       inkscape:export-xdpi="200.81134"
       inkscape:export-ydpi="200.81134" />
    <path
       id="path5400"
       d="m -166.06853,172.45108 h -22.32422 v -15.70964 c 0,-0.45682 -0.37,-0.82682 -0.82682,-0.82682 h -1.65365 c -0.45682,0 -0.82682,0.37 -0.82682,0.82682 v 17.36329 c 0,0.91312 0.74052,1.65364 1.65364,1.65364 h 23.97787 c 0.45682,0 0.82682,-0.37 0.82682,-0.82682 v -1.65365 c 0,-0.45682 -0.37,-0.82682 -0.82682,-0.82682 z m -1.65365,-14.88281 h -6.10092 c -1.10484,0 -1.65829,1.33583 -0.87694,2.11718 l 1.67431,1.67432 -3.7915,3.79201 -3.7915,-3.7915 c -0.64595,-0.64595 -1.69292,-0.64595 -2.33836,0 l -3.54965,3.54966 c -0.32298,0.32298 -0.32298,0.84646 0,1.16944 l 1.16892,1.16892 c 0.32298,0.32297 0.84646,0.32297 1.16944,0 l 2.38021,-2.38074 3.7915,3.7915 c 0.64596,0.64596 1.69292,0.64596 2.33836,0 l 4.96094,-4.96093 1.67432,1.67431 c 0.78134,0.78135 2.11718,0.2279 2.11718,-0.87695 v -6.1004 c 5.3e-4,-0.45682 -0.36949,-0.82682 -0.82631,-0.82682 z"
       inkscape:connector-curvature="0"
       style="fill:#c81d8a;fill-opacity:1;stroke-width:0.05167643"
       inkscape:export-filename="C:\Users\macropower\Documents\GitHub\OmegaGraf\OmegaGraf\compose\docs\branding\flow_1440_features.png"
       inkscape:export-xdpi="200.81134"
       inkscape:export-ydpi="200.81134" />
    <circle
       id="path56-9-8-8"
       cx="-178.47089"
       cy="165.83647"
       style="fill:none;stroke:#000000;stroke-width:1.32291663;stroke-miterlimit:4;stroke-dasharray:none;stroke-opacity:1"
       r="20.505209"
       inkscape:export-filename="C:\Users\macropower\Documents\GitHub\OmegaGraf\OmegaGraf\compose\docs\branding\flow_1440_features.png"
       inkscape:export-xdpi="200.81134"
       inkscape:export-ydpi="200.81134" />
    <path
       id="path5444"
       d="m -165.24174,225.0571 c 0,-1.08544 -0.59485,-2.02296 -1.4699,-2.53192 v -7.02202 c 0,-0.40193 -0.32063,-1.47037 -1.46991,-1.47037 -0.32706,0 -0.65181,0.10933 -0.91778,0.32246 l -3.90581,3.12493 c -1.96187,1.56821 -4.42488,2.43224 -6.93567,2.43224 h -8.81944 c -1.62379,0 -2.93982,1.31603 -2.93982,2.93982 v 4.40972 c 0,1.62379 1.31603,2.93981 2.93982,2.93981 h 1.54799 c -0.0639,0.4814 -0.10014,0.97106 -0.10014,1.46991 0,1.82682 0.42536,3.55304 1.17409,5.09598 0.2384,0.49105 0.75884,0.78365 1.30455,0.78365 h 3.41202 c 1.19659,0 1.91501,-1.37069 1.1897,-2.32245 -0.75332,-0.98852 -1.20119,-2.2214 -1.20119,-3.55718 0,-0.51033 0.0744,-1.00092 0.20258,-1.46991 h 1.28984 c 2.51079,0 4.9738,0.86403 6.93521,2.43224 l 3.90582,3.12493 a 1.4709639,1.4709639 0 0 0 0.91777,0.32246 c 1.14469,0 1.46991,-1.04639 1.46991,-1.46991 v -7.02202 c 0.87551,-0.50941 1.47036,-1.44694 1.47036,-2.53237 z m -4.40972,6.49607 -1.51814,-1.21451 c -2.48047,-1.98438 -5.59621,-3.0767 -8.77121,-3.0767 v -4.40972 c 3.175,0 6.29074,-1.09233 8.77121,-3.0767 l 1.51814,-1.21452 z"
       inkscape:connector-curvature="0"
       style="fill:#c81d8a;fill-opacity:1;stroke-width:0.0459346"
       inkscape:export-filename="C:\Users\macropower\Documents\GitHub\OmegaGraf\OmegaGraf\compose\docs\branding\flow_1440_features.png"
       inkscape:export-xdpi="200.81134"
       inkscape:export-ydpi="200.81134" />
    <circle
       id="path56-9-8-68"
       cx="-178.47089"
       cy="225.79202"
       style="fill:none;stroke:#000000;stroke-width:1.32291663;stroke-miterlimit:4;stroke-dasharray:none;stroke-opacity:1"
       r="20.505209"
       inkscape:export-filename="C:\Users\macropower\Documents\GitHub\OmegaGraf\OmegaGraf\compose\docs\branding\flow_1440_features.png"
       inkscape:export-xdpi="200.81134"
       inkscape:export-ydpi="200.81134" />
    <path
       id="path5455"
       d="m -168.05293,97.376485 v 2.126102 c 0,1.873663 -4.66637,3.401793 -10.41797,3.401793 -5.7516,0 -10.41797,-1.52813 -10.41797,-3.401793 v -2.126102 c 0,-1.87365 4.66637,-3.40179 10.41797,-3.40179 5.7516,0 10.41797,1.52814 10.41797,3.40179 z m 0,4.783765 v 4.78375 c 0,1.87365 -4.66637,3.40179 -10.41797,3.40179 -5.7516,0 -10.41797,-1.52814 -10.41797,-3.40179 v -4.78375 c 2.23824,1.54144 6.33487,2.25902 10.41797,2.25902 4.0831,0 8.17969,-0.71758 10.41797,-2.25902 z m 0,7.4414 v 4.78376 c 0,1.87365 -4.66637,3.40179 -10.41797,3.40179 -5.7516,0 -10.41797,-1.52814 -10.41797,-3.40179 v -4.78376 c 2.23824,1.54144 6.33487,2.25902 10.41797,2.25902 4.0831,0 8.17969,-0.71758 10.41797,-2.25902 z"
       inkscape:connector-curvature="0"
       style="fill:#c81d8a;fill-opacity:1;stroke-width:0.04650879"
       inkscape:export-filename="C:\Users\macropower\Documents\GitHub\OmegaGraf\OmegaGraf\compose\docs\branding\flow_1440_features.png"
       inkscape:export-xdpi="200.81134"
       inkscape:export-ydpi="200.81134" />
    <circle
       id="path56-9-8-5"
       cx="-178.47089"
       cy="105.88094"
       style="fill:none;stroke:#000000;stroke-width:1.32291663;stroke-miterlimit:4;stroke-dasharray:none;stroke-opacity:1"
       r="20.505209"
       inkscape:export-filename="C:\Users\macropower\Documents\GitHub\OmegaGraf\OmegaGraf\compose\docs\branding\flow_1440_features.png"
       inkscape:export-xdpi="200.81134"
       inkscape:export-ydpi="200.81134" />
    <path
       id="path5433"
       d="m -6.3363788,47.951138 -6.0221002,-8.603591 c -1.0243,-1.46072 -2.655,-2.241608 -4.3087,-2.241608 -1.0381,0 -2.09,0.307761 -3.0087,0.950849 -0.9049,0.633899 -1.548,1.506659 -1.9063,2.47129 -0.1332,-2.723941 -2.361,-4.892061 -5.1171,-4.892061 -2.8434,0 -5.1447,2.301341 -5.1447,5.144701 v 10.289389 c 0,2.843372 2.3013,5.144702 5.1447,5.144702 2.8433,0 5.1447,-2.30133 5.1447,-5.144702 v -6.848869 c 0.1515,0.395031 0.3353,0.785479 0.5879,1.148361 l 6.0267,8.603588 c 1.0197,1.46073 2.6504,2.241622 4.3087,2.241622 1.0427002,0 2.0900002,-0.307761 3.0087002,-0.950849 2.3748,-1.66284 2.949,-4.937991 1.2862,-7.312822 z M -24.494479,45.925419 h -4.4097 v -5.144701 c 0,-1.217271 0.9876,-2.204871 2.2049,-2.204871 1.2172,0 2.2048,0.9876 2.2048,2.204871 z m 8.9481,2.06247 -3.0133,-4.304091 c -0.3537,-0.50528 -0.4915,-1.120809 -0.3813,-1.72715 0.1057,-0.60634 0.4456,-1.139179 0.9509,-1.492879 0.3904,-0.275612 0.8498,-0.41801 1.3229,-0.41801 0.7579,0 1.4653,0.36748 1.8971,0.987599 l 3.0134,4.304091 z"
       inkscape:connector-curvature="0"
       style="fill:#c81d8a;fill-opacity:1;stroke-width:0.04593479"
       inkscape:export-filename="C:\Users\macropower\Documents\GitHub\OmegaGraf\OmegaGraf\compose\docs\branding\flow_1440_features.png"
       inkscape:export-xdpi="200.81134"
       inkscape:export-ydpi="200.81134" />
    <circle
       id="path56-9-8-55"
       cx="-19.673208"
       cy="45.925407"
       style="fill:none;stroke:#000000;stroke-width:1.32291663;stroke-miterlimit:4;stroke-dasharray:none;stroke-opacity:1"
       r="20.505209"
       inkscape:export-filename="C:\Users\macropower\Documents\GitHub\OmegaGraf\OmegaGraf\compose\docs\branding\flow_1440_features.png"
       inkscape:export-xdpi="200.81134"
       inkscape:export-ydpi="200.81134" />
    <text
       xml:space="preserve"
       style="font-style:normal;font-variant:normal;font-weight:normal;font-stretch:normal;font-size:10.58333302px;line-height:1.25;font-family:'Proxima Nova';-inkscape-font-specification:'Proxima Nova';letter-spacing:0px;word-spacing:0px;fill:#000000;fill-opacity:1;stroke:none;stroke-width:0.26458332"
       x="-154.47498"
       y="228.31085"
       id="text4970-4"
       inkscape:export-filename="C:\Users\macropower\Documents\GitHub\OmegaGraf\OmegaGraf\compose\docs\branding\flow_1440_features.png"
       inkscape:export-xdpi="200.81134"
       inkscape:export-ydpi="200.81134"><tspan
         sodipodi:role="line"
         id="tspan4968-1"
         x="-154.47498"
         y="228.31085"
         style="stroke-width:0.26458332">Alerting</tspan></text>
    <text
       xml:space="preserve"
       style="font-style:normal;font-variant:normal;font-weight:normal;font-stretch:normal;font-size:10.58333302px;line-height:1.25;font-family:'Proxima Nova';-inkscape-font-specification:'Proxima Nova';letter-spacing:0px;word-spacing:0px;fill:#000000;fill-opacity:1;stroke:none;stroke-width:0.26458332"
       x="-155.20526"
       y="169.32898"
       id="text5104"
       inkscape:export-filename="C:\Users\macropower\Documents\GitHub\OmegaGraf\OmegaGraf\compose\docs\branding\flow_1440_features.png"
       inkscape:export-xdpi="200.81134"
       inkscape:export-ydpi="200.81134"><tspan
         sodipodi:role="line"
         id="tspan5102"
         x="-155.20526"
         y="169.32898"
         style="stroke-width:0.26458332">Predictive Metrics</tspan></text>
    <text
       xml:space="preserve"
       style="font-style:normal;font-variant:normal;font-weight:normal;font-stretch:normal;font-size:10.58333302px;line-height:1.25;font-family:'Proxima Nova';-inkscape-font-specification:'Proxima Nova';letter-spacing:0px;word-spacing:0px;fill:#000000;fill-opacity:1;stroke:none;stroke-width:0.26458332"
       x="-154.47498"
       y="102.7906"
       id="text5108"
       inkscape:export-filename="C:\Users\macropower\Documents\GitHub\OmegaGraf\OmegaGraf\compose\docs\branding\flow_1440_features.png"
       inkscape:export-xdpi="200.81134"
       inkscape:export-ydpi="200.81134"><tspan
         sodipodi:role="line"
         id="tspan5106"
         x="-154.47498"
         y="102.7906"
         style="stroke-width:0.26458332">Adjustable Granularity</tspan><tspan
         sodipodi:role="line"
         x="-154.47498"
         y="116.01977"
         style="stroke-width:0.26458332"
         id="tspan5110">and Retention</tspan></text>
    <text
       xml:space="preserve"
       style="font-style:normal;font-variant:normal;font-weight:normal;font-stretch:normal;font-size:10.58333302px;line-height:1.25;font-family:'Proxima Nova';-inkscape-font-specification:'Proxima Nova';letter-spacing:0px;word-spacing:0px;fill:#000000;fill-opacity:1;stroke:none;stroke-width:0.26458332"
       x="-154.89832"
       y="49.449646"
       id="text5108-0"
       inkscape:export-filename="C:\Users\macropower\Documents\GitHub\OmegaGraf\OmegaGraf\compose\docs\branding\flow_1440_features.png"
       inkscape:export-xdpi="200.81134"
       inkscape:export-ydpi="200.81134"><tspan
         sodipodi:role="line"
         x="-154.89832"
         y="49.449646"
         style="stroke-width:0.26458332"
         id="tspan5110-7">Curated Dashboards</tspan></text>
    <text
       xml:space="preserve"
       style="font-style:normal;font-variant:normal;font-weight:normal;font-stretch:normal;font-size:10.58333302px;line-height:1.25;font-family:'Proxima Nova';-inkscape-font-specification:'Proxima Nova';letter-spacing:0px;word-spacing:0px;fill:#000000;fill-opacity:1;stroke:none;stroke-width:0.26458332"
       x="3.5489442"
       y="49.391449"
       id="text5104-7"
       inkscape:export-filename="C:\Users\macropower\Documents\GitHub\OmegaGraf\OmegaGraf\compose\docs\branding\flow_1440_features.png"
       inkscape:export-xdpi="200.81134"
       inkscape:export-ydpi="200.81134"><tspan
         sodipodi:role="line"
         id="tspan5102-3"
         x="3.5489442"
         y="49.391449"
         style="stroke-width:0.26458332">Health Data</tspan></text>
    <path
       id="path5153"
       d="m -32.260879,100.30118 12.0373,5.46058 c 0.3514,0.15968 0.7488,0.15968 1.1002,0 l 12.0373002,-5.46058 c 0.8552,-0.388076 0.8552,-1.680487 0,-2.068567 l -12.0368002,-5.46109 a 1.3232591,1.3232591 0 0 0 -1.1002,0 l -12.0378,5.460572 c -0.8553,0.388088 -0.8553,1.681009 0,2.069085 z m 25.1753002,4.56194 -3.0018002,-1.36062 -8.3529,3.78628 c -0.3906,0.17725 -0.8056,0.26716 -1.233,0.26716 -0.4273,0 -0.8418,-0.0899 -1.2329,-0.26716 l -8.3524,-3.78628 -3.0023,1.36062 c -0.8553,0.38757 -0.8553,1.67946 0,2.06703 l 12.0373,5.45644 c 0.3514,0.15916 0.7488,0.15916 1.1002,0 l 12.0378002,-5.45644 c 0.8553,-0.38757 0.8553,-1.67946 0,-2.06703 z m 0,6.60416 -2.9905002,-1.35546 -8.3642,3.79145 c -0.3906,0.17724 -0.8056,0.26716 -1.233,0.26716 -0.4273,0 -0.8418,-0.0899 -1.2329,-0.26716 l -8.3638,-3.79145 -2.9909,1.35546 c -0.8553,0.38756 -0.8553,1.67946 0,2.06701 l 12.0373,5.45644 c 0.3514,0.15917 0.7488,0.15917 1.1002,0 l 12.0378002,-5.45644 c 0.8553,-0.38755 0.8553,-1.67945 0,-2.06701 z"
       inkscape:connector-curvature="0"
       style="fill:#c81d8a;fill-opacity:1;stroke-width:0.05167568"
       inkscape:export-filename="C:\Users\macropower\Documents\GitHub\OmegaGraf\OmegaGraf\compose\docs\branding\flow_1440_features.png"
       inkscape:export-xdpi="200.81134"
       inkscape:export-ydpi="200.81134" />
    <circle
       id="path56-9-8-9-5"
       cx="-19.673208"
       cy="105.88094"
       style="fill:none;stroke:#000000;stroke-width:1.32291663;stroke-miterlimit:4;stroke-dasharray:none;stroke-opacity:1"
       r="20.505209"
       inkscape:export-filename="C:\Users\macropower\Documents\GitHub\OmegaGraf\OmegaGraf\compose\docs\branding\flow_1440_features.png"
       inkscape:export-xdpi="200.81134"
       inkscape:export-ydpi="200.81134" />
    <text
       xml:space="preserve"
       style="font-style:normal;font-variant:normal;font-weight:normal;font-stretch:normal;font-size:10.58333302px;line-height:1.25;font-family:'Proxima Nova';-inkscape-font-specification:'Proxima Nova';letter-spacing:0px;word-spacing:0px;fill:#000000;fill-opacity:1;stroke:none;stroke-width:0.26458332"
       x="3.5489442"
       y="108.39977"
       id="text4970-4-3"
       inkscape:export-filename="C:\Users\macropower\Documents\GitHub\OmegaGraf\OmegaGraf\compose\docs\branding\flow_1440_features.png"
       inkscape:export-xdpi="200.81134"
       inkscape:export-ydpi="200.81134"><tspan
         sodipodi:role="line"
         id="tspan4968-1-0"
         x="3.5489442"
         y="108.39977"
         style="stroke-width:0.26458332">Multi-Tenant Aggregation</tspan></text>
    <path
       id="path5209"
       d="m -24.052679,233.66532 c 0,0.10668 -0.1227,0.19203 -0.2774,0.19203 -0.1761,0.016 -0.2987,-0.0693 -0.2987,-0.19203 0,-0.10669 0.1226,-0.19204 0.2773,-0.19204 0.1601,-0.016 0.2988,0.0693 0.2988,0.19204 z m -1.659,-0.24005 c -0.037,0.10669 0.069,0.22938 0.2294,0.26138 0.1387,0.0533 0.2987,0 0.3307,-0.10668 0.032,-0.10669 -0.069,-0.22938 -0.2294,-0.27739 -0.1387,-0.0373 -0.2934,0.016 -0.3307,0.12269 z m 2.3578,-0.0907 c -0.1547,0.0373 -0.2614,0.1387 -0.2454,0.26139 0.016,0.10668 0.1547,0.17603 0.3147,0.13868 0.1547,-0.0373 0.2614,-0.13868 0.2454,-0.24537 -0.016,-0.10136 -0.16,-0.1707 -0.3147,-0.1547 z m 3.51,-20.4412 c -7.3988,0 -13.0585,5.61706 -13.0585,13.01579 0,5.91579 3.7234,10.97808 9.0417,12.75975 0.6828,0.12269 0.9228,-0.29872 0.9228,-0.64545 0,-0.33073 -0.016,-2.15508 -0.016,-3.27529 0,0 -3.734,0.80015 -4.5182,-1.58963 0,0 -0.6081,-1.5523 -1.4829,-1.95237 0,0 -1.2216,-0.83749 0.085,-0.82149 0,0 1.3282,0.10669 2.0591,1.37626 1.1682,2.05906 3.1259,1.46694 3.8887,1.11488 0.1227,-0.8535 0.4694,-1.44561 0.8535,-1.79768 -2.9819,-0.33073 -5.9905,-0.76281 -5.9905,-5.89445 0,-1.46694 0.4054,-2.20308 1.2589,-3.14192 -0.1387,-0.34674 -0.5921,-1.77634 0.1387,-3.62202 1.1149,-0.34674 3.6807,1.44027 3.6807,1.44027 1.0669,-0.29873 2.2138,-0.45342 3.35,-0.45342 1.1362,0 2.2831,0.15469 3.3499,0.45342 0,0 2.5659,-1.79234 3.6807,-1.44027 0.7308,1.85101 0.2774,3.27528 0.1387,3.62202 0.8535,0.94417 1.3763,1.68031 1.3763,3.14192 0,5.14765 -3.1419,5.55839 -6.1238,5.89445 0.4907,0.42142 0.9068,1.22157 0.9068,2.47514 0,1.79767 -0.016,4.02209 -0.016,4.45951 0,0.34673 0.24539,0.76815 0.92289,0.64546 5.33431,-1.77101 8.9510002,-6.8333 8.9510002,-12.74909 0,-7.39873 -6.0012002,-13.01579 -13.3999002,-13.01579 z m -7.8735,18.39815 c -0.069,0.0533 -0.053,0.17603 0.037,0.27738 0.085,0.0854 0.208,0.12269 0.2774,0.0533 0.069,-0.0533 0.053,-0.17603 -0.037,-0.27738 -0.085,-0.0854 -0.2081,-0.12269 -0.2774,-0.0533 z m -0.5761,-0.43208 c -0.037,0.0693 0.016,0.15469 0.1226,0.20804 0.085,0.0533 0.1921,0.0373 0.2294,-0.0374 0.037,-0.0693 -0.016,-0.15469 -0.1227,-0.20803 -0.1067,-0.032 -0.192,-0.016 -0.2293,0.0373 z m 1.7283,1.89902 c -0.085,0.0694 -0.053,0.22938 0.069,0.33073 0.1227,0.12269 0.2774,0.13869 0.3467,0.0533 0.069,-0.0693 0.037,-0.22937 -0.069,-0.33073 -0.1173,-0.12269 -0.2774,-0.13869 -0.3467,-0.0533 z m -0.6081,-0.78415 c -0.085,0.0533 -0.085,0.19204 0,0.31473 0.085,0.12269 0.2293,0.17603 0.2987,0.12269 0.085,-0.0694 0.085,-0.20804 0,-0.33073 -0.075,-0.12269 -0.2134,-0.17603 -0.2987,-0.10669 z"
       inkscape:connector-curvature="0"
       style="fill:#c81d8a;fill-opacity:1;stroke-width:0.05334343"
       inkscape:export-filename="C:\Users\macropower\Documents\GitHub\OmegaGraf\OmegaGraf\compose\docs\branding\flow_1440_features.png"
       inkscape:export-xdpi="200.81134"
       inkscape:export-ydpi="200.81134" />
    <circle
       id="path56-9-8-9-9-9"
       cx="-19.673208"
       cy="225.79202"
       style="fill:none;stroke:#000000;stroke-width:1.32291663;stroke-miterlimit:4;stroke-dasharray:none;stroke-opacity:1"
       r="20.505209"
       inkscape:export-filename="C:\Users\macropower\Documents\GitHub\OmegaGraf\OmegaGraf\compose\docs\branding\flow_1440_features.png"
       inkscape:export-xdpi="200.81134"
       inkscape:export-ydpi="200.81134" />
    <text
       xml:space="preserve"
       style="font-style:normal;font-variant:normal;font-weight:normal;font-stretch:normal;font-size:10.58333302px;line-height:1.25;font-family:'Proxima Nova';-inkscape-font-specification:'Proxima Nova';letter-spacing:0px;word-spacing:0px;fill:#000000;fill-opacity:1;stroke:none;stroke-width:0.26458332"
       x="4.1416106"
       y="222.0614"
       id="text4970-4-6"
       inkscape:export-filename="C:\Users\macropower\Documents\GitHub\OmegaGraf\OmegaGraf\compose\docs\branding\flow_1440_features.png"
       inkscape:export-xdpi="200.81134"
       inkscape:export-ydpi="200.81134"><tspan
         sodipodi:role="line"
         id="tspan4968-1-9"
         x="4.1416106"
         y="222.0614"
         style="stroke-width:0.26458332">Open-Source Codebase.</tspan><tspan
         sodipodi:role="line"
         x="4.1416106"
         y="235.29057"
         style="stroke-width:0.26458332"
         id="tspan5257">100% Free, Forever.</tspan></text>
    <circle
       id="path56-9-8-9-9"
       cx="-19.673208"
       cy="165.83647"
       style="fill:none;stroke:#000000;stroke-width:1.32291663;stroke-miterlimit:4;stroke-dasharray:none;stroke-opacity:1"
       r="20.505209"
       inkscape:export-filename="C:\Users\macropower\Documents\GitHub\OmegaGraf\OmegaGraf\compose\docs\branding\flow_1440_features.png"
       inkscape:export-xdpi="200.81134"
       inkscape:export-ydpi="200.81134" />
    <path
       id="path5259"
       d="m -20.538779,162.42221 v 3.51884 c 1.3487,0.30486 2.5475,0.80608 3.8031,1.15228 v -3.52401 c -1.3435,-0.29969 -2.5526,-0.80091 -3.8031,-1.14711 z m 11.5383002,-6.35561 c -1.7723002,0.82158 -3.9529002,1.64833 -6.0456002,1.64833 -2.7644,0 -5.0534,-1.79818 -8.5361,-1.79818 -1.2918,0 -2.4441,0.22736 -3.5137,0.62006 0.1447,-0.3772 0.2119,-0.78541 0.186,-1.21945 -0.093,-1.46747 -1.2969,-2.64559 -2.7696,-2.70759 -1.6535,-0.0672 -3.0124,1.25562 -3.0124,2.89361 0,0.98176 0.4909,1.84984 1.2401,2.37173 v 19.95042 c 0,0.68723 0.5529,1.24012 1.2401,1.24012 h 0.8268 c 0.6872,0 1.2401,-0.55289 1.2401,-1.24012 v -4.8778 c 1.4623,-0.62523 3.2863,-1.14195 5.9112,-1.14195 2.7696,0 5.0535,1.79818 8.5362,1.79818 2.4905,0 4.4799002,-0.84225 6.3297002,-2.11337 0.4496,-0.31003 0.7131,-0.81642 0.7131,-1.36413 v -12.56138 c 0.01,-1.20395 -1.2504,-2.00486 -2.3459,-1.49848 z m -15.3413002,13.36229 c -1.3331,0.13951 -2.5836,0.42371 -3.803,0.85775 v -3.64286 c 1.3538,-0.48054 2.4544,-0.77507 3.803,-0.89908 z m 15.2121002,-6.94984 c -1.2194002,0.50638 -2.3924002,1.0076 -3.8030002,1.23495 v 3.67386 c 1.2815,-0.17569 2.6559,-0.60973 3.8030002,-1.34347 v 3.64285 c -1.2969002,0.83192 -2.5060002,1.27629 -3.8030002,1.40031 v -3.69969 c -1.3951,0.19118 -2.4751,0.0775 -3.803,-0.28936 v 3.48267 c -1.235,-0.38238 -2.4441,-0.86292 -3.8031,-1.10061 v -3.53951 c -1.0179,-0.22736 -2.1082,-0.35137 -3.803,-0.19635 v -3.61702 c -1.1574,0.16018 -2.3045,0.52705 -3.803,1.07994 v -3.64285 c 1.7155,-0.63039 2.5887,-1.0231 3.803,-1.13678 v 3.69969 c 1.3951,-0.19118 2.5009,-0.0672 3.803,0.29453 v -3.48267 c 1.2247,0.38237 2.4389,0.86292 3.8031,1.10061 v 3.53434 c 1.2246,0.27386 2.4595,0.35653 3.803,0.13951 v -3.71519 c 1.3951,-0.24802 2.7024,-0.70273 3.8030002,-1.16261 z"
       inkscape:connector-curvature="0"
       style="fill:#c81d8a;fill-opacity:1;stroke-width:0.05167164"
       inkscape:export-filename="C:\Users\macropower\Documents\GitHub\OmegaGraf\OmegaGraf\compose\docs\branding\flow_1440_features.png"
       inkscape:export-xdpi="200.81134"
       inkscape:export-ydpi="200.81134" />
    <text
       xml:space="preserve"
       style="font-style:normal;font-variant:normal;font-weight:normal;font-stretch:normal;font-size:10.58333302px;line-height:1.25;font-family:'Proxima Nova';-inkscape-font-specification:'Proxima Nova';letter-spacing:0px;word-spacing:0px;fill:#000000;fill-opacity:1;stroke:none;stroke-width:0.26458332"
       x="3.9934175"
       y="168.35532"
       id="text4970-4-3-6"
       inkscape:export-filename="C:\Users\macropower\Documents\GitHub\OmegaGraf\OmegaGraf\compose\docs\branding\flow_1440_features.png"
       inkscape:export-xdpi="200.81134"
       inkscape:export-ydpi="200.81134"><tspan
         sodipodi:role="line"
         id="tspan4968-1-0-2"
         x="3.9934175"
         y="168.35532"
         style="stroke-width:0.26458332">&lt;5min Deployment Times</tspan></text>
  </g>
</svg>
